<mxfile host="app.diagrams.net" modified="2023-05-15T10:00:00.000Z" agent="5.0 (Windows NT 10.0; Win64; x64) AppleWebKit/537.36 (KHTML, like Gecko) Chrome/91.0.4472.124 Safari/537.36" etag="abc123" version="14.6.13" type="device">
  <diagram id="sequence-diagram" name="Sequence Diagram">
    <mxGraphModel dx="1422" dy="762" grid="1" gridSize="10" guides="1" tooltips="1" connect="1" arrows="1" fold="1" page="1" pageScale="1" pageWidth="850" pageHeight="1100" math="0" shadow="0">
      <root>
        <mxCell id="0" />
        <mxCell id="1" parent="0" />
        
        <!-- Lifelines -->
        <mxCell id="2" value="Client" style="shape=umlLifeline;perimeter=lifelinePerimeter;whiteSpace=wrap;html=1;container=1;collapsible=0;recursiveResize=0;outlineConnect=0;fillColor=#dae8fc;strokeColor=#6c8ebf;" vertex="1" parent="1">
          <mxGeometry x="80" y="80" width="100" height="500" as="geometry" />
        </mxCell>
        
        <mxCell id="3" value="Controller" style="shape=umlLifeline;perimeter=lifelinePerimeter;whiteSpace=wrap;html=1;container=1;collapsible=0;recursiveResize=0;outlineConnect=0;fillColor=#d5e8d4;strokeColor=#82b366;" vertex="1" parent="1">
          <mxGeometry x="240" y="80" width="100" height="500" as="geometry" />
        </mxCell>
        
        <mxCell id="4" value="Service" style="shape=umlLifeline;perimeter=lifelinePerimeter;whiteSpace=wrap;html=1;container=1;collapsible=0;recursiveResize=0;outlineConnect=0;fillColor=#d5e8d4;strokeColor=#82b366;" vertex="1" parent="1">
          <mxGeometry x="400" y="80" width="100" height="500" as="geometry" />
        </mxCell>
        
        <mxCell id="5" value="Repository" style="shape=umlLifeline;perimeter=lifelinePerimeter;whiteSpace=wrap;html=1;container=1;collapsible=0;recursiveResize=0;outlineConnect=0;fillColor=#d5e8d4;strokeColor=#82b366;" vertex="1" parent="1">
          <mxGeometry x="560" y="80" width="100" height="500" as="geometry" />
        </mxCell>
        
        <mxCell id="6" value="PostgreSQL" style="shape=umlLifeline;perimeter=lifelinePerimeter;whiteSpace=wrap;html=1;container=1;collapsible=0;recursiveResize=0;outlineConnect=0;fillColor=#ffe6cc;strokeColor=#d79b00;" vertex="1" parent="1">
          <mxGeometry x="720" y="80" width="100" height="500" as="geometry" />
        </mxCell>
        
        <!-- Messages -->
        <mxCell id="7" value="GET /advisor/1" style="html=1;verticalAlign=bottom;endArrow=block;entryX=0;entryY=0;rounded=0;" edge="1" parent="1" source="2" target="8">
          <mxGeometry relative="1" as="geometry">
            <mxPoint x="170" y="160" as="sourcePoint" />
          </mxGeometry>
        </mxCell>
        
        <mxCell id="8" value="" style="html=1;points=[];perimeter=orthogonalPerimeter;fillColor=#d5e8d4;strokeColor=#82b366;" vertex="1" parent="1">
          <mxGeometry x="285" y="160" width="10" height="40" as="geometry" />
        </mxCell>
        
        <mxCell id="9" value="getAdvisorById(1)" style="html=1;verticalAlign=bottom;endArrow=block;entryX=0;entryY=0;rounded=0;" edge="1" parent="1" source="8" target="10">
          <mxGeometry relative="1" as="geometry">
            <mxPoint x="350" y="200" as="sourcePoint" />
          </mxGeometry>
        </mxCell>
        
        <mxCell id="10" value="" style="html=1;points=[];perimeter=orthogonalPerimeter;fillColor=#d5e8d4;strokeColor=#82b366;" vertex="1" parent="1">
          <mxGeometry x="445" y="200" width="10" height="40" as="geometry" />
        </mxCell>
        
        <mxCell id="11" value="getById(1)" style="html=1;verticalAlign=bottom;endArrow=block;entryX=0;entryY=0;rounded=0;" edge="1" parent="1" source="10" target="12">
          <mxGeometry relative="1" as="geometry">
            <mxPoint x="510" y="240" as="sourcePoint" />
          </mxGeometry>
        </mxCell>
        
        <mxCell id="12" value="" style="html=1;points=[];perimeter=orthogonalPerimeter;fillColor=#d5e8d4;strokeColor=#82b366;" vertex="1" parent="1">
          <mxGeometry x="605" y="240" width="10" height="120" as="geometry" />
        </mxCell>
        
        <mxCell id="13" value="SELECT * FROM advisor WHERE id = 1" style="html=1;verticalAlign=bottom;endArrow=block;entryX=0;entryY=0;rounded=0;" edge="1" parent="1" source="12" target="14">
          <mxGeometry relative="1" as="geometry">
            <mxPoint x="670" y="280" as="sourcePoint" />
          </mxGeometry>
        </mxCell>
        
        <mxCell id="14" value="" style="html=1;points=[];perimeter=orthogonalPerimeter;fillColor=#ffe6cc;strokeColor=#d79b00;" vertex="1" parent="1">
          <mxGeometry x="765" y="280" width="10" height="40" as="geometry" />
        </mxCell>
        
        <mxCell id="15" value="Result Set" style="html=1;verticalAlign=bottom;endArrow=open;dashed=1;endSize=8;exitX=0;exitY=0.95;rounded=0;" edge="1" parent="1" source="14" target="12">
          <mxGeometry relative="1" as="geometry">
            <mxPoint x="670" y="318" as="targetPoint" />
          </mxGeometry>
        </mxCell>
        
        <mxCell id="16" value="AdvisorEntity" style="html=1;verticalAlign=bottom;endArrow=open;dashed=1;endSize=8;exitX=0;exitY=0.95;rounded=0;" edge="1" parent="1" source="12" target="17">
          <mxGeometry relative="1" as="geometry">
            <mxPoint x="510" y="360" as="targetPoint" />
          </mxGeometry>
        </mxCell>
        
        <mxCell id="17" value="" style="html=1;points=[];perimeter=orthogonalPerimeter;fillColor=#d5e8d4;strokeColor=#82b366;" vertex="1" parent="1">
          <mxGeometry x="445" y="360" width="10" height="40" as="geometry" />
        </mxCell>
        
        <mxCell id="18" value="AdvisorEntity" style="html=1;verticalAlign=bottom;endArrow=open;dashed=1;endSize=8;exitX=0;exitY=0.95;rounded=0;" edge="1" parent="1" source="17" target="19">
          <mxGeometry relative="1" as="geometry">
            <mxPoint x="350" y="400" as="targetPoint" />
          </mxGeometry>
        </mxCell>
        
        <mxCell id="19" value="" style="html=1;points=[];perimeter=orthogonalPerimeter;fillColor=#d5e8d4;strokeColor=#82b366;" vertex="1" parent="1">
          <mxGeometry x="285" y="400" width="10" height="40" as="geometry" />
        </mxCell>
        
        <mxCell id="20" value="JSON Response" style="html=1;verticalAlign=bottom;endArrow=open;dashed=1;endSize=8;exitX=0;exitY=0.95;rounded=0;" edge="1" parent="1" source="19" target="2">
          <mxGeometry relative="1" as="geometry">
            <mxPoint x="170" y="440" as="targetPoint" />
          </mxGeometry>
        </mxCell>
        
        <!-- Notes -->
        <mxCell id="21" value="1. Client sends HTTP request" style="shape=note;whiteSpace=wrap;html=1;size=14;verticalAlign=top;align=left;spacingTop=-6;fillColor=#fff2cc;strokeColor=#d6b656;" vertex="1" parent="1">
          <mxGeometry x="80" y="600" width="160" height="40" as="geometry" />
        </mxCell>
        
        <mxCell id="22" value="2. Controller processes request" style="shape=note;whiteSpace=wrap;html=1;size=14;verticalAlign=top;align=left;spacingTop=-6;fillColor=#fff2cc;strokeColor=#d6b656;" vertex="1" parent="1">
          <mxGeometry x="250" y="600" width="160" height="40" as="geometry" />
        </mxCell>
        
        <mxCell id="23" value="3. Service handles business logic" style="shape=note;whiteSpace=wrap;html=1;size=14;verticalAlign=top;align=left;spacingTop=-6;fillColor=#fff2cc;strokeColor=#d6b656;" vertex="1" parent="1">
          <mxGeometry x="420" y="600" width="160" height="40" as="geometry" />
        </mxCell>
        
        <mxCell id="24" value="4. Repository accesses data" style="shape=note;whiteSpace=wrap;html=1;size=14;verticalAlign=top;align=left;spacingTop=-6;fillColor=#fff2cc;strokeColor=#d6b656;" vertex="1" parent="1">
          <mxGeometry x="590" y="600" width="160" height="40" as="geometry" />
        </mxCell>
        
        <mxCell id="25" value="5. Database returns data" style="shape=note;whiteSpace=wrap;html=1;size=14;verticalAlign=top;align=left;spacingTop=-6;fillColor=#fff2cc;strokeColor=#d6b656;" vertex="1" parent="1">
          <mxGeometry x="760" y="600" width="160" height="40" as="geometry" />
        </mxCell>
      </root>
    </mxGraphModel>
  </diagram>
</mxfile>